<?xml version="1.0" encoding="utf-8"?>
<!-- Generator: Adobe Illustrator 25.2.3, SVG Export Plug-In . SVG Version: 6.00 Build 0)  -->
<svg version="1.1" id="Layer_1" xmlns="http://www.w3.org/2000/svg" xmlns:xlink="http://www.w3.org/1999/xlink" x="0px" y="0px"
	 viewBox="0 0 30 30" style="enable-background:new 0 0 30 30;" xml:space="preserve">
<style type="text/css">
	.st0{fill:#0D47B5;}
</style>
<g id="Regular-S" transform="matrix(1 0 0 1 1394.33 696)">
	<path class="st0" d="M-1379.3-673.8c0.9,0,1.9,0,2.9,0c1,0,2,0,3-0.1c1,0,1.9-0.1,2.7-0.1c0.8-0.1,1.5-0.1,2-0.2
		c0.8-0.1,1.3-0.3,1.8-0.8c0.4-0.4,0.6-1,0.6-1.7v-1.9c0-0.9-0.1-1.7-0.3-2.3c-0.2-0.6-0.6-1.3-1.1-1.9l-0.9-1.2
		c-0.1-0.6-0.3-1.3-0.5-1.9c-0.2-0.6-0.4-1.2-0.6-1.7c-0.2-0.5-0.3-0.9-0.5-1.2c-0.3-0.6-0.7-1.1-1.3-1.5c-0.6-0.4-1.2-0.6-1.9-0.7
		c-0.2,0-0.7-0.1-1.2-0.1c-0.6,0-1.3,0-2.1,0c-0.8,0-1.7,0-2.7,0c-1,0-1.9,0-2.7,0c-0.8,0-1.5,0-2.1,0.1c-0.6,0-1,0-1.2,0.1
		c-0.7,0.1-1.4,0.3-2,0.7c-0.6,0.4-1,0.9-1.3,1.5c-0.1,0.3-0.3,0.7-0.5,1.2c-0.2,0.5-0.4,1.1-0.6,1.7c-0.2,0.6-0.3,1.3-0.5,1.9
		l-0.9,1.2c-0.5,0.7-0.9,1.3-1.1,1.9c-0.2,0.6-0.3,1.4-0.3,2.3v1.9c0,0.7,0.2,1.3,0.6,1.7c0.4,0.4,1,0.7,1.8,0.8
		c0.5,0.1,1.2,0.1,2,0.2c0.8,0.1,1.7,0.1,2.7,0.1c1,0,2,0.1,3,0.1C-1381.2-673.9-1380.3-673.8-1379.3-673.8z M-1379.3-675.4
		c-0.9,0-1.9,0-2.9,0s-2,0-2.9-0.1s-1.8-0.1-2.5-0.1c-0.8,0-1.3-0.1-1.8-0.1c-0.5-0.1-0.8-0.2-1-0.5c-0.2-0.2-0.3-0.6-0.3-1v-1.4
		c0-0.7,0.1-1.3,0.2-1.8c0.1-0.4,0.4-0.9,0.8-1.5l1.1-1.5c0.1-0.5,0.2-1.1,0.4-1.7c0.2-0.6,0.3-1.2,0.5-1.7c0.2-0.6,0.4-1,0.5-1.4
		c0.2-0.4,0.4-0.7,0.7-0.9s0.7-0.4,1.2-0.4c0.4,0,1-0.1,2.1-0.1c1,0,2.3-0.1,3.7-0.1c1.5,0,2.7,0,3.7,0.1s1.7,0.1,2,0.1
		c0.5,0.1,0.9,0.2,1.2,0.4c0.3,0.2,0.6,0.5,0.7,0.9c0.2,0.4,0.3,0.8,0.5,1.4c0.2,0.6,0.4,1.1,0.5,1.7c0.2,0.6,0.3,1.2,0.4,1.7
		l1.1,1.5c0.4,0.5,0.7,1,0.8,1.5c0.1,0.4,0.2,1,0.2,1.8v1.4c0,0.4-0.1,0.7-0.3,1c-0.2,0.2-0.5,0.4-1,0.5c-0.4,0-1,0.1-1.8,0.1
		c-0.8,0-1.6,0.1-2.6,0.1c-0.9,0-1.9,0.1-2.9,0.1S-1378.4-675.4-1379.3-675.4z M-1387-684.2c0,0.2,0,0.3,0.1,0.4
		c0.1,0.1,0.2,0.1,0.4,0.1c0.6,0,1.2-0.1,1.9-0.1c0.7,0,1.4-0.1,2.3-0.1c0.9,0,1.8,0,3,0c1.1,0,2.1,0,3,0c0.9,0,1.6,0.1,2.3,0.1
		c0.7,0,1.3,0.1,1.9,0.1c0.2,0,0.4,0,0.4-0.1c0.1-0.1,0.1-0.2,0.1-0.4c-0.1-0.5-0.3-1.1-0.5-1.8c-0.2-0.7-0.4-1.1-0.6-1.4
		c-0.1-0.2-0.3-0.4-0.4-0.5s-0.4-0.2-0.6-0.2c-0.4-0.1-1-0.1-1.9-0.1c-0.9,0-2.1-0.1-3.6-0.1c-1.5,0-2.7,0-3.6,0.1
		c-0.9,0-1.5,0.1-1.9,0.1c-0.2,0-0.5,0.1-0.6,0.2s-0.3,0.3-0.4,0.5c-0.2,0.3-0.4,0.8-0.6,1.4C-1386.7-685.3-1386.8-684.7-1387-684.2
		z M-1382.3-677.2h5.9c0.4,0,0.7-0.1,1-0.4c0.2-0.2,0.4-0.6,0.4-1s-0.1-0.7-0.4-1s-0.6-0.4-1-0.4h-5.9c-0.4,0-0.7,0.1-1,0.4
		s-0.4,0.6-0.4,1s0.1,0.7,0.4,1C-1383-677.4-1382.6-677.2-1382.3-677.2z M-1369.6-670.8h1.3c0.4,0,0.8-0.1,1-0.4s0.4-0.6,0.4-1v-3.3
		l-4.2,0.6v2.7c0,0.4,0.1,0.7,0.4,1S-1370.1-670.8-1369.6-670.8z M-1390.3-670.8h1.3c0.4,0,0.8-0.1,1-0.4s0.4-0.6,0.4-1v-2.7
		l-4.2-0.6v3.3c0,0.4,0.1,0.7,0.4,1S-1390.7-670.8-1390.3-670.8z M-1371.5-676.8c0.5,0,1-0.2,1.3-0.5c0.4-0.4,0.5-0.8,0.5-1.3
		c0-0.5-0.2-1-0.5-1.3c-0.4-0.4-0.8-0.5-1.3-0.5s-1,0.2-1.3,0.5c-0.4,0.4-0.5,0.8-0.5,1.3c0,0.5,0.2,1,0.5,1.3
		C-1372.4-676.9-1372-676.8-1371.5-676.8z M-1387.2-676.8c0.5,0,1-0.2,1.3-0.5c0.4-0.4,0.5-0.8,0.5-1.3c0-0.5-0.2-1-0.5-1.3
		c-0.4-0.4-0.8-0.5-1.3-0.5s-1,0.2-1.3,0.5c-0.4,0.4-0.5,0.8-0.5,1.3c0,0.5,0.2,1,0.5,1.3C-1388.1-676.9-1387.7-676.8-1387.2-676.8z
		"/>
</g>
</svg>
