<?xml version="1.0" encoding="utf-8"?>
<!-- Generator: Adobe Illustrator 25.2.3, SVG Export Plug-In . SVG Version: 6.00 Build 0)  -->
<svg version="1.1" id="Layer_1" xmlns="http://www.w3.org/2000/svg" xmlns:xlink="http://www.w3.org/1999/xlink" x="0px" y="0px"
	 viewBox="0 0 30 30" style="enable-background:new 0 0 30 30;" xml:space="preserve">
<style type="text/css">
	.st0{fill:#0D47B5;}
</style>
<g id="Regular-S" transform="matrix(1 0 0 1 1407.56 696)">
	<path class="st0" d="M-1402.8-671.9c0,1.3,0.3,2.3,1,3s1.6,1,2.9,1h12.8c1.3,0,2.3-0.3,2.9-1s1-1.6,1-3v-18.1c0-1.3-0.3-2.3-1-2.9
		s-1.6-1-2.9-1h-12.8c-1.3,0-2.3,0.3-2.9,1s-1,1.6-1,2.9V-671.9z M-1400.6-672V-690c0-0.6,0.1-1,0.4-1.3c0.3-0.3,0.7-0.5,1.3-0.5
		h12.6c0.6,0,1,0.2,1.3,0.5c0.3,0.3,0.4,0.7,0.4,1.3v18.1c0,0.6-0.1,1-0.4,1.3c-0.3,0.3-0.7,0.5-1.3,0.5h-12.6c-0.6,0-1-0.2-1.3-0.5
		C-1400.5-671-1400.6-671.4-1400.6-672z M-1397-682.5h9c0.2,0,0.4-0.1,0.6-0.2c0.2-0.2,0.2-0.4,0.2-0.6c0-0.2-0.1-0.4-0.2-0.6
		c-0.2-0.2-0.4-0.2-0.6-0.2h-9c-0.2,0-0.4,0.1-0.6,0.2c-0.2,0.2-0.2,0.4-0.2,0.6c0,0.2,0.1,0.5,0.2,0.6
		C-1397.5-682.5-1397.3-682.5-1397-682.5z M-1397-686.7h9c0.2,0,0.4-0.1,0.6-0.2c0.2-0.2,0.2-0.4,0.2-0.6c0-0.2-0.1-0.4-0.2-0.6
		c-0.2-0.2-0.4-0.2-0.6-0.2h-9c-0.2,0-0.4,0.1-0.6,0.2c-0.2,0.2-0.2,0.4-0.2,0.6c0,0.2,0.1,0.4,0.2,0.6
		C-1397.5-686.8-1397.3-686.7-1397-686.7z M-1397-678.3h4.2c0.2,0,0.4-0.1,0.6-0.2c0.2-0.2,0.2-0.4,0.2-0.6c0-0.2-0.1-0.4-0.2-0.6
		c-0.2-0.2-0.4-0.2-0.6-0.2h-4.2c-0.2,0-0.4,0.1-0.6,0.2c-0.2,0.2-0.2,0.4-0.2,0.6c0,0.2,0.1,0.4,0.2,0.6
		C-1397.5-678.4-1397.3-678.3-1397-678.3z"/>
</g>
</svg>
