<?xml version="1.0" encoding="utf-8"?>
<!-- Generator: Adobe Illustrator 25.2.3, SVG Export Plug-In . SVG Version: 6.00 Build 0)  -->
<svg version="1.1" id="Layer_1" xmlns="http://www.w3.org/2000/svg" xmlns:xlink="http://www.w3.org/1999/xlink" x="0px" y="0px"
	 viewBox="0 0 30 30" style="enable-background:new 0 0 30 30;" xml:space="preserve">
<style type="text/css">
	.st0{fill:#0D47B5;}
</style>
<g id="Regular-S" transform="matrix(1 0 0 1 1403.58 696)">
	<path class="st0" d="M-1388.6-668c1.8,0,3.5-0.3,5-1c1.6-0.7,2.9-1.6,4.1-2.8c1.2-1.2,2.1-2.6,2.8-4.2c0.7-1.6,1-3.2,1-5
		s-0.3-3.4-1-5c-0.7-1.6-1.6-3-2.8-4.2c-1.2-1.2-2.6-2.1-4.2-2.8c-1.6-0.7-3.2-1-5-1c-1.8,0-3.4,0.3-5,1c-1.6,0.7-2.9,1.6-4.1,2.8
		c-1.2,1.2-2.1,2.6-2.8,4.2c-0.7,1.6-1,3.2-1,5s0.3,3.4,1,5c0.7,1.6,1.6,3,2.8,4.2c1.2,1.2,2.6,2.1,4.1,2.8
		C-1392-668.3-1390.4-668-1388.6-668z M-1388.6-669.9c-1.5,0-2.9-0.3-4.3-0.9c-1.3-0.6-2.5-1.4-3.5-2.4c-1-1-1.8-2.2-2.4-3.5
		c-0.6-1.3-0.9-2.8-0.9-4.3s0.3-2.9,0.9-4.3s1.4-2.5,2.4-3.5c1-1,2.2-1.8,3.5-2.4c1.3-0.6,2.7-0.9,4.3-0.9c1.5,0,2.9,0.3,4.3,0.9
		c1.3,0.6,2.5,1.4,3.5,2.4c1,1,1.8,2.2,2.4,3.5s0.9,2.8,0.9,4.3s-0.3,2.9-0.9,4.3c-0.6,1.3-1.4,2.5-2.4,3.5c-1,1-2.2,1.8-3.5,2.4
		C-1385.7-670.2-1387.1-669.9-1388.6-669.9z M-1388.6-668.8c0.9,0,1.7-0.3,2.5-0.9c0.8-0.6,1.5-1.5,2.1-2.6s1-2.4,1.4-3.9
		c0.3-1.5,0.5-3.1,0.5-4.8c0-1.7-0.2-3.3-0.5-4.8c-0.3-1.5-0.8-2.8-1.4-3.9c-0.6-1.1-1.3-2-2.1-2.6c-0.8-0.6-1.6-0.9-2.5-0.9
		c-0.9,0-1.7,0.3-2.5,0.9c-0.8,0.6-1.5,1.5-2.1,2.6s-1,2.4-1.4,3.9c-0.3,1.5-0.5,3.1-0.5,4.8c0,1.7,0.2,3.3,0.5,4.8
		c0.3,1.5,0.8,2.8,1.4,3.9s1.3,2,2.1,2.6C-1390.3-669.1-1389.5-668.8-1388.6-668.8z M-1388.6-691.4c0.6,0,1.2,0.3,1.7,0.8
		c0.5,0.6,1,1.3,1.5,2.3s0.8,2.1,1,3.3c0.2,1.3,0.4,2.6,0.4,4c0,1.4-0.1,2.7-0.4,3.9c-0.2,1.2-0.6,2.4-1,3.3c-0.4,1-0.9,1.7-1.5,2.3
		c-0.5,0.6-1.1,0.8-1.7,0.8c-0.6,0-1.2-0.3-1.7-0.8s-1-1.3-1.5-2.3c-0.4-1-0.8-2.1-1-3.3s-0.4-2.6-0.4-3.9c0-1.4,0.1-2.7,0.4-4
		s0.6-2.4,1-3.3s0.9-1.7,1.5-2.3S-1389.2-691.4-1388.6-691.4z M-1389.5-693v23.9h1.9V-693H-1389.5z M-1377-681.9h-23.2v1.9h23.2
		V-681.9z M-1388.6-676.4c-1.3,0-2.5,0.1-3.7,0.3c-1.2,0.2-2.2,0.5-3.2,0.9s-1.7,0.9-2.3,1.5l1.4,1.2c0.8-0.7,1.9-1.2,3.2-1.5
		c1.3-0.3,2.8-0.5,4.5-0.5c1.7,0,3.2,0.2,4.5,0.5c1.3,0.3,2.4,0.9,3.2,1.5l1.4-1.2c-0.6-0.6-1.4-1-2.3-1.5s-2-0.7-3.2-0.9
		C-1386-676.3-1387.3-676.4-1388.6-676.4z M-1388.6-685.5c1.3,0,2.6-0.1,3.7-0.3c1.2-0.2,2.2-0.5,3.2-0.9c0.9-0.4,1.7-0.9,2.3-1.5
		l-1.4-1.2c-0.8,0.7-1.9,1.2-3.2,1.5c-1.3,0.3-2.8,0.5-4.5,0.5c-1.7,0-3.2-0.2-4.5-0.5c-1.3-0.3-2.4-0.9-3.2-1.5l-1.4,1.2
		c0.6,0.6,1.4,1,2.3,1.5c0.9,0.4,2,0.7,3.2,0.9C-1391.1-685.6-1389.9-685.5-1388.6-685.5z"/>
</g>
</svg>
