<?xml version="1.0" encoding="utf-8"?>
<!-- Generator: Adobe Illustrator 25.2.3, SVG Export Plug-In . SVG Version: 6.00 Build 0)  -->
<svg version="1.1" id="Layer_1" xmlns="http://www.w3.org/2000/svg" xmlns:xlink="http://www.w3.org/1999/xlink" x="0px" y="0px"
	 viewBox="0 0 100 100" style="enable-background:new 0 0 100 100;" xml:space="preserve">
<style type="text/css">
	.st0{fill:#0D47B5;}
</style>
<path class="st0" d="M97.3,19.8c-0.1-9.4-7.7-17-17.1-17.1C70.1,2.6,60.1,2.5,50,2.5c-10.1,0-20.1,0.1-30.2,0.2
	c-9.4,0.1-17,7.7-17.1,17.1C2.6,29.9,2.5,39.9,2.5,50c0,10.1,0.1,20.1,0.2,30.2c0.1,9.4,7.7,17,17.1,17.1
	c10.1,0.1,20.1,0.2,30.2,0.2c10.1,0,20.1-0.1,30.2-0.2c9.4-0.1,17-7.7,17.1-17.1c0.1-10.1,0.2-20.1,0.2-30.2
	C97.5,39.9,97.4,29.9,97.3,19.8z M92.4,80.1c0,3.3-1.3,6.3-3.6,8.6c-2.3,2.3-5.4,3.6-8.6,3.6c-10,0.1-20.1,0.2-30.1,0.2
	c-10,0-20.1-0.1-30.1-0.2c-3.3,0-6.3-1.3-8.6-3.6c-2.3-2.3-3.6-5.4-3.6-8.6C7.5,70.1,7.4,60,7.4,50c0-10,0.1-0.1,0.2-10.1
	c0-3.3,1.3-6.3,3.6-8.6c2.3-2.3,5.4-3.6,8.6-3.6c10-0.1,20.1-0.2,30.1-0.2c10,0,20.2,0.1,30.1,0.2c3.3,0,6.3,1.3,8.6,3.6
	c2.3,2.3,3.6,5.4,3.6,8.6c0.1,10,0.2,0.1,0.2,10.1C92.6,60,92.5,70.1,92.4,80.1z"/>
</svg>
